<svg viewBox="0 0 800 458" xmlns="http://www.w3.org/2000/svg" xmlns:xlink="http://www.w3.org/1999/xlink" overflow="hidden"><g id="git_x5F_branch_x5F_1"><path d="M148.2 187.3C148.2 209.9 129.8 228.3 107.2 228.3M148.2 187.3C148.2 164.7 166.6 146.3 189.2 146.3L211.6 146.3" stroke="#404040" stroke-width="4" stroke-miterlimit="10" fill="none"/><circle cx="232.6" cy="146.3" r="21" stroke="#404040" stroke-width="4" stroke-miterlimit="10" fill="#B18BE8"/><path d="M428.9 269.3C428.9 246.7 410.5 228.3 387.9 228.3M428.9 269.3C428.9 291.9 447.3 310.3 469.9 310.3L684.3 310.3" stroke="#404040" stroke-width="4" stroke-miterlimit="10" fill="none"/><circle cx="513.2" cy="310.3" r="21" stroke="#404040" stroke-width="4" stroke-miterlimit="10" fill="#4ED1A1"/><circle cx="609.2" cy="310.3" r="21" stroke="#404040" stroke-width="4" stroke-miterlimit="10" fill="#4ED1A1"/><circle cx="705.2" cy="310.3" r="21" stroke="#404040" stroke-width="4" stroke-miterlimit="10" fill="#4ED1A1"/><path d="M75.2 228.3 492.2 228.3" stroke="#404040" stroke-width="4" stroke-miterlimit="10" fill="#B3E3FF"/><circle cx="54.2" cy="228.3" r="21" stroke="#404040" stroke-width="4" stroke-miterlimit="10" fill="#B3E3FF"/><circle cx="231.6" cy="228.3" r="21" stroke="#404040" stroke-width="4" stroke-miterlimit="10" fill="#B3E3FF"/><circle cx="328.6" cy="228.3" r="21" stroke="#404040" stroke-width="4" stroke-miterlimit="10" fill="#B3E3FF"/><circle cx="513.2" cy="228.3" r="21" stroke="#404040" stroke-width="4" stroke-miterlimit="10" fill="#B3E3FF"/><path d="M166 5.1 299.1 5.1 299.1 55.1 166 55.1Z" stroke="#404040" stroke-width="4" stroke-linecap="round" stroke-linejoin="round" stroke-miterlimit="10" fill="#B18BE8"/><path d="M184.3 36.1 184.3 25.5 185.8 25.5 185.8 34.8 190.8 34.8 190.8 36.2 184.3 36.2ZM193.8 25.2C194.4 25.2 194.8 25.6 194.8 26.2 194.8 26.8 194.4 27.2 193.8 27.2 193.2 27.2 192.8 26.7 192.8 26.2 192.8 25.6 193.3 25.2 193.8 25.2ZM193.1 36.1 193.1 28.9 194.5 28.9 194.5 36.1 193.1 36.1ZM199.6 28.9 201.2 28.9 201.2 30.2 199.6 30.2 199.6 34C199.6 34.7 199.9 35 200.6 35 200.8 35 201 35 201.2 34.9L201.2 36.1C201.1 36.1 200.7 36.2 200.2 36.2 199 36.2 198.2 35.4 198.2 34.1L198.2 30.1 196.8 30.1 196.8 28.8 197.2 28.8C198 28.8 198.3 28.3 198.3 27.7L198.3 26.5 199.6 26.5 199.6 28.9ZM205.6 28.9 207.2 28.9 207.2 30.2 205.6 30.2 205.6 34C205.6 34.7 205.9 35 206.6 35 206.8 35 207 35 207.2 34.9L207.2 36.1C207.1 36.1 206.7 36.2 206.2 36.2 205 36.2 204.2 35.4 204.2 34.1L204.2 30.1 202.8 30.1 202.8 28.8 203.2 28.8C204 28.8 204.3 28.3 204.3 27.7L204.3 26.5 205.6 26.5 205.6 28.9ZM209.8 36.1 209.8 25.3 211.2 25.3 211.2 36.2 209.8 36.2ZM220.7 34.1C220.3 35.4 219.1 36.4 217.5 36.4 215.6 36.4 213.9 35 213.9 32.5 213.9 30.2 215.5 28.7 217.3 28.7 219.5 28.7 220.8 30.2 220.8 32.5L220.8 32.9 215.4 32.9C215.4 34.2 216.4 35.1 217.6 35.1 218.8 35.1 219.4 34.5 219.6 33.6L220.7 34.1ZM219.3 31.8C219.3 30.8 218.6 30 217.3 30 216.1 30 215.4 30.9 215.3 31.8L219.3 31.8ZM227.9 36.1 227.9 25.5 234.4 25.5 234.4 26.9 229.4 26.9 229.4 30.3 233.9 30.3 233.9 31.7 229.4 31.7 229.4 36.2 227.9 36.2ZM242.5 34.1C242.1 35.4 240.9 36.4 239.3 36.4 237.4 36.4 235.7 35 235.7 32.5 235.7 30.2 237.3 28.7 239.1 28.7 241.3 28.7 242.6 30.2 242.6 32.5L242.6 32.9 237.2 32.9C237.2 34.2 238.2 35.1 239.4 35.1 240.6 35.1 241.2 34.5 241.4 33.6L242.5 34.1ZM241.1 31.8C241.1 30.8 240.4 30 239.1 30 237.9 30 237.2 30.9 237.1 31.8L241.1 31.8ZM246.9 32 248.8 31.7C249.2 31.6 249.4 31.4 249.4 31.2 249.4 30.5 248.9 29.9 247.8 29.9 246.8 29.9 246.3 30.5 246.2 31.4L244.8 31.1C245 29.7 246.2 28.8 247.8 28.8 250 28.8 250.8 30 250.8 31.4L250.8 35C250.8 35.6 250.9 36 250.9 36.2L249.5 36.2C249.5 36 249.4 35.7 249.4 35.2 249.1 35.7 248.4 36.4 247.1 36.4 245.6 36.4 244.7 35.4 244.7 34.2 244.7 32.9 245.6 32.2 246.9 32ZM249.4 33.1 249.4 32.8 247.2 33.1C246.6 33.2 246.2 33.5 246.2 34.2 246.2 34.7 246.6 35.2 247.4 35.2 248.5 35.2 249.4 34.6 249.4 33.1ZM255.6 28.9 257.2 28.9 257.2 30.2 255.6 30.2 255.6 34C255.6 34.7 255.9 35 256.6 35 256.8 35 257 35 257.2 34.9L257.2 36.1C257.1 36.1 256.7 36.2 256.2 36.2 255 36.2 254.2 35.4 254.2 34.1L254.2 30.1 252.8 30.1 252.8 28.8 253.2 28.8C254 28.8 254.3 28.3 254.3 27.7L254.3 26.5 255.6 26.5 255.6 28.9ZM262.4 36.4C260.7 36.4 259.7 35.1 259.7 33.5L259.7 29 261.1 29 261.1 33.3C261.1 34.3 261.5 35.2 262.7 35.2 263.8 35.2 264.4 34.4 264.4 33.4L264.4 29 265.8 29 265.8 34.9C265.8 35.5 265.8 36 265.9 36.2L264.5 36.2C264.5 36 264.4 35.6 264.4 35.3 264.2 36 263.3 36.4 262.4 36.4ZM273.1 30.4 272.5 30.4C271.3 30.4 270.5 31 270.5 32.6L270.5 36.2 269.1 36.2 269.1 29 270.5 29 270.5 30.3C271 29.2 271.9 28.9 272.7 28.9L273.2 28.9 273.2 30.4ZM281.5 34.1C281.1 35.4 279.9 36.4 278.3 36.4 276.4 36.4 274.7 35 274.7 32.5 274.7 30.2 276.3 28.7 278.1 28.7 280.3 28.7 281.6 30.2 281.6 32.5L281.6 32.9 276.2 32.9C276.2 34.2 277.2 35.1 278.4 35.1 279.6 35.1 280.2 34.5 280.4 33.6L281.5 34.1ZM280.1 31.8C280.1 30.8 279.4 30 278.1 30 276.9 30 276.2 30.9 276.1 31.8L280.1 31.8Z" fill="#404040"/><path d="M643.6 401.4 766.8 401.4 766.8 451.4 643.6 451.4Z" stroke="#404040" stroke-width="4" stroke-linecap="round" stroke-linejoin="round" stroke-miterlimit="10" fill="#4ED1A1"/><path d="M668.1 421.7C670.1 421.7 671.3 422.9 671.3 424.6 671.3 425.7 670.6 426.6 669.7 426.9 670.9 427.2 671.6 428.3 671.6 429.5 671.6 431.2 670.3 432.4 668.3 432.4L664.6 432.4 664.6 421.8 668.1 421.8ZM667.9 426.4C669.1 426.4 669.8 425.7 669.8 424.7 669.8 423.7 669.1 423 667.9 423L666.1 423 666.1 426.4 667.9 426.4ZM668.2 431.1C669.4 431.1 670.2 430.4 670.2 429.4 670.2 428.4 669.6 427.7 668.3 427.7L666.2 427.7 666.2 431.1 668.2 431.1ZM675 421.4C675.6 421.4 676 421.8 676 422.4 676 423 675.6 423.4 675 423.4 674.4 423.4 674 422.9 674 422.4 674 421.8 674.4 421.4 675 421.4ZM674.3 432.4 674.3 425.2 675.7 425.2 675.7 432.4 674.3 432.4ZM679.7 432.4C679.8 433.4 680.6 434.2 681.7 434.2 683.2 434.2 683.9 433.4 683.9 431.9L683.9 430.9C683.6 431.6 682.8 432.1 681.7 432.1 679.8 432.1 678.4 430.6 678.4 428.6 678.4 426.7 679.7 425.1 681.7 425.1 682.8 425.1 683.6 425.5 683.9 426.2L683.9 425.2 685.3 425.2 685.3 431.9C685.3 433.7 684.4 435.5 681.7 435.5 679.9 435.5 678.6 434.4 678.4 432.8L679.7 432.4ZM683.9 428.5C683.9 427.1 683.1 426.2 681.8 426.2 680.6 426.2 679.7 427.1 679.7 428.5 679.7 429.9 680.5 430.8 681.8 430.8 683 430.8 683.9 429.9 683.9 428.5ZM692.9 432.4 692.9 421.8 699.4 421.8 699.4 423.2 694.4 423.2 694.4 426.6 698.9 426.6 698.9 428 694.4 428 694.4 432.5 692.9 432.5ZM707.5 430.3C707.1 431.6 705.9 432.6 704.3 432.6 702.4 432.6 700.7 431.2 700.7 428.7 700.7 426.4 702.3 424.9 704.1 424.9 706.3 424.9 707.6 426.4 707.6 428.7L707.6 429.1 702.2 429.1C702.2 430.4 703.2 431.3 704.4 431.3 705.6 431.3 706.2 430.7 706.4 429.8L707.5 430.3ZM706.1 428C706.1 427 705.4 426.2 704.1 426.2 702.9 426.2 702.2 427.1 702.1 428L706.1 428ZM711.8 428.2 713.7 427.9C714.1 427.8 714.3 427.6 714.3 427.4 714.3 426.7 713.8 426.1 712.7 426.1 711.7 426.1 711.2 426.7 711.1 427.6L709.7 427.3C709.9 425.9 711.1 425 712.7 425 714.9 425 715.7 426.2 715.7 427.6L715.7 431.2C715.7 431.8 715.8 432.2 715.8 432.4L714.4 432.4C714.4 432.2 714.3 431.9 714.3 431.4 714 431.9 713.3 432.6 712 432.6 710.5 432.6 709.6 431.6 709.6 430.4 709.7 429.1 710.6 428.4 711.8 428.2ZM714.4 429.3 714.4 429 712.2 429.3C711.6 429.4 711.1 429.7 711.1 430.4 711.1 430.9 711.5 431.4 712.3 431.4 713.4 431.4 714.4 430.8 714.4 429.3ZM720.6 425.1 722.2 425.1 722.2 426.4 720.6 426.4 720.6 430.2C720.6 430.9 720.9 431.2 721.6 431.2 721.8 431.2 722 431.2 722.2 431.1L722.2 432.3C722.1 432.3 721.7 432.4 721.2 432.4 720 432.4 719.2 431.6 719.2 430.3L719.2 426.3 717.8 426.3 717.8 425 718.2 425C719 425 719.3 424.5 719.3 423.9L719.3 422.7 720.6 422.7 720.6 425.1ZM727.4 432.6C725.7 432.6 724.7 431.3 724.7 429.7L724.7 425.2 726.1 425.2 726.1 429.5C726.1 430.5 726.5 431.4 727.7 431.4 728.8 431.4 729.4 430.6 729.4 429.6L729.4 425.2 730.8 425.2 730.8 431.1C730.8 431.7 730.8 432.2 730.9 432.4L729.5 432.4C729.5 432.2 729.4 431.8 729.4 431.5 729.1 432.2 728.2 432.6 727.4 432.6ZM738 426.6 737.4 426.6C736.2 426.6 735.4 427.2 735.4 428.8L735.4 432.4 734 432.4 734 425.2 735.4 425.2 735.4 426.5C735.9 425.4 736.8 425.1 737.6 425.1L738.1 425.1 738.1 426.6ZM746.5 430.3C746.1 431.6 744.9 432.6 743.3 432.6 741.4 432.6 739.7 431.2 739.7 428.7 739.7 426.4 741.3 424.9 743.1 424.9 745.3 424.9 746.6 426.4 746.6 428.7L746.6 429.1 741.2 429.1C741.2 430.4 742.2 431.3 743.4 431.3 744.6 431.3 745.2 430.7 745.4 429.8L746.5 430.3ZM745.1 428C745.1 427 744.4 426.2 743.1 426.2 741.9 426.2 741.2 427.1 741.1 428L745.1 428Z" fill="#404040"/><path d="M466.3 86.8 560.1 86.8 560.1 136.8 466.3 136.8Z" stroke="#404040" stroke-width="4" stroke-linecap="round" stroke-linejoin="round" stroke-miterlimit="10" fill="#B3E3FF"/><path d="M498.9 117.8 498.9 109.5 495.3 117.8 494 117.8 490.4 109.5 490.4 117.8 488.9 117.8 488.9 107.2 490.9 107.2 494.6 115.9 498.4 107.2 500.4 107.2 500.4 117.8 498.9 117.8ZM505.3 113.7 507.2 113.4C507.6 113.3 507.8 113.1 507.8 112.9 507.8 112.2 507.3 111.6 506.2 111.6 505.2 111.6 504.7 112.2 504.6 113.1L503.2 112.8C503.4 111.4 504.6 110.5 506.2 110.5 508.4 110.5 509.2 111.7 509.2 113.1L509.2 116.7C509.2 117.3 509.3 117.7 509.3 117.9L508 117.9C508 117.7 507.9 117.4 507.9 116.9 507.6 117.4 506.9 118.1 505.6 118.1 504.1 118.1 503.2 117.1 503.2 115.9 503.1 114.6 504.1 113.9 505.3 113.7ZM507.8 114.7 507.8 114.4 505.6 114.7C505 114.8 504.6 115.1 504.6 115.8 504.6 116.3 505 116.8 505.8 116.8 506.9 116.8 507.8 116.3 507.8 114.7ZM512.8 115.5C512.9 116.3 513.5 116.8 514.5 116.8 515.3 116.8 515.7 116.4 515.7 115.8 515.7 115.4 515.4 115 514.8 114.9L513.6 114.6C512.5 114.4 511.8 113.6 511.8 112.6 511.8 111.4 513 110.3 514.4 110.3 516.4 110.3 517 111.6 517.1 112.2L515.9 112.7C515.8 112.3 515.5 111.5 514.4 111.5 513.7 111.5 513.2 112 513.2 112.5 513.2 112.9 513.5 113.3 514 113.4L515.2 113.7C516.5 114 517.2 114.8 517.2 115.8 517.2 116.8 516.3 118 514.6 118 512.6 118 511.8 116.7 511.7 115.9L512.8 115.5ZM521.6 110.6 523.2 110.6 523.2 111.9 521.6 111.9 521.6 115.7C521.6 116.4 521.9 116.7 522.6 116.7 522.8 116.7 523 116.7 523.2 116.6L523.2 117.8C523.1 117.8 522.7 117.9 522.2 117.9 521 117.9 520.2 117.1 520.2 115.8L520.2 111.8 518.8 111.8 518.8 110.5 519.2 110.5C520 110.5 520.3 110 520.3 109.4L520.3 108.2 521.6 108.2 521.6 110.6ZM532 115.7C531.6 117 530.4 118 528.8 118 526.9 118 525.2 116.6 525.2 114.1 525.2 111.8 526.8 110.3 528.6 110.3 530.8 110.3 532.1 111.8 532.1 114.1L532.1 114.5 526.7 114.5C526.7 115.8 527.7 116.7 528.9 116.7 530.1 116.7 530.7 116.1 530.9 115.2L532 115.7ZM530.6 113.4C530.6 112.4 529.9 111.6 528.6 111.6 527.4 111.6 526.7 112.5 526.6 113.4L530.6 113.4ZM538.6 112 538 112C536.8 112 536 112.6 536 114.2L536 117.8 534.6 117.8 534.6 110.6 536 110.6 536 111.9C536.5 110.8 537.4 110.5 538.2 110.5L538.7 110.5 538.7 112Z" fill="#404040"/><path d="M232.6 100.8 232.6 77.3M243.4 92.1 232.6 102.9 221.7 92.1M513.2 183 513.2 159.5M524.1 174.3 513.2 185.1 502.3 174.3M705.2 355.7 705.2 379.2M694.3 364.4 705.2 353.5 716.1 364.4" stroke="#404040" stroke-width="4" stroke-linecap="round" stroke-linejoin="round" stroke-miterlimit="10" fill="none"/></g></svg>